<?xml version="1.0" encoding="utf-8"?>
<!-- Generator: Adobe Illustrator 24.1.1, SVG Export Plug-In . SVG Version: 6.00 Build 0)  -->
<svg version="1.1" id="Ebene_1" xmlns="http://www.w3.org/2000/svg" xmlns:xlink="http://www.w3.org/1999/xlink" x="0px" y="0px"
	 viewBox="0 0 501.6 398" style="enable-background:new 0 0 501.6 398;" xml:space="preserve">
<style type="text/css">
	.st0{fill:#FC1D5C;}
</style>
<g id="Ebene_3">
	<rect x="185.2" y="240.4" class="st0" width="34.3" height="157.6"/>
	<rect x="115" y="240.4" class="st0" width="34.3" height="157.6"/>
	<rect x="22" y="240.4" class="st0" width="57" height="157.6"/>
	<rect x="22" y="148.8" class="st0" width="228.8" height="91.6"/>
	<polyline class="st0" points="22,173.6 0,173.6 0,180.7 22,215.6 	"/>
	<polygon class="st0" points="22,148.8 16.9,148.8 16.9,158.9 22,168.8 	"/>
	<path class="st0" d="M22,240.4"/>
	<rect x="282" y="240.4" class="st0" width="34.3" height="157.6"/>
	<rect x="352.3" y="240.4" class="st0" width="34.3" height="157.6"/>
	<rect x="422.6" y="240.4" class="st0" width="57" height="157.6"/>
	<rect x="250.8" y="148.8" class="st0" width="228.8" height="91.6"/>
	<polyline class="st0" points="479.6,173.6 501.6,173.6 501.6,180.7 479.6,215.6 	"/>
	<polygon class="st0" points="479.6,148.8 484.7,148.8 484.7,158.9 479.6,168.8 	"/>
	<path class="st0" d="M479.6,240.4"/>
	<rect x="149.3" y="133.9" class="st0" width="203" height="14.9"/>
	<rect x="318.4" y="91.6" class="st0" width="34" height="42.2"/>
	<rect x="149.3" y="91.6" class="st0" width="34" height="42.2"/>
	<polygon class="st0" points="282,64.4 219.5,64.4 205.8,92.6 205.8,134.8 295.8,134.8 295.8,92.6 	"/>
	<rect x="229.3" y="52.8" class="st0" width="43.1" height="11.6"/>
	<rect x="238.7" y="31.7" class="st0" width="24.3" height="21.1"/>
	<circle class="st0" cx="250.8" cy="13.8" r="13.8"/>
</g>
</svg>
