<?xml version="1.0" encoding="UTF-8" standalone="no"?>
<svg
   fill="#000000"
   viewBox="0 0 24 24"
   width="24px"
   height="24px"
   version="1.1"
   id="svg167"
   xmlns="http://www.w3.org/2000/svg"
   xmlns:svg="http://www.w3.org/2000/svg">
  <defs
     id="defs171" />
  <path
     id="path165"
     style="stroke-width:1.1414"
     d="M 12 0.03515625 C 8.206216 0.03515625 5.1523438 3.0890282 5.1523438 6.8828125 L 5.1523438 8.0253906 C 3.9047257 8.0253906 2.8691406 9.0590232 2.8691406 10.306641 L 2.8691406 21.720703 C 2.8691406 22.96832 3.9047257 24.003906 5.1523438 24.003906 L 18.847656 24.003906 C 20.095275 24.003906 21.130859 22.96832 21.130859 21.720703 L 21.130859 10.306641 C 21.130859 9.0721282 20.116727 8.0487724 18.886719 8.0273438 L 15.005859 8.0273438 L 15.005859 8.0253906 L 7.4335938 8.0253906 L 7.4335938 6.8828125 C 7.4335938 4.2847768 9.4019645 2.3183594 12 2.3183594 C 14.434315 2.3183594 16.315593 4.0455047 16.542969 6.4003906 L 18.830078 6.4003906 C 18.58367 2.8337904 15.63128 0.03515625 12 0.03515625 z M 5.1523438 10.306641 L 18.847656 10.306641 L 18.847656 21.720703 L 5.1523438 21.720703 L 5.1523438 10.306641 z M 12 13.732422 C 10.744464 13.732422 9.7167969 14.758136 9.7167969 16.013672 C 9.7167969 17.269207 10.744464 18.296875 12 18.296875 C 13.255536 18.296875 14.283203 17.269207 14.283203 16.013672 C 14.283203 14.758136 13.255536 13.732422 12 13.732422 z " />
</svg>
