<?xml version="1.0" encoding="UTF-8" standalone="no"?>
<svg
   fill="#000000"
   viewBox="0 0 16 21"
   width="16"
   height="21"
   version="1.1"
   id="svg4302"
   xmlns="http://www.w3.org/2000/svg"
   xmlns:svg="http://www.w3.org/2000/svg">
  <defs
     id="defs4306" />
  <path
     d="M 8,0 C 4.6761905,0 2,2.6761905 2,6 V 7 C 0.9069372,7 0,7.9069372 0,9 v 10 c 0,1.093063 0.9069372,2 2,2 h 12 c 1.093063,0 2,-0.906937 2,-2 V 9 C 16,7.9069372 15.093063,7 14,7 V 6 C 14,2.6761905 11.32381,0 8,0 Z m 0,2 c 2.27619,0 4,1.7238095 4,4 V 7 H 4 V 6 C 4,3.7238095 5.7238095,2 8,2 Z M 2,9 H 14 V 19 H 2 Z m 6,3 c -1.1,0 -2,0.9 -2,2 0,1.1 0.9,2 2,2 1.1,0 2,-0.9 2,-2 0,-1.1 -0.9,-2 -2,-2 z"
     id="path4300" />
</svg>
