<?xml version="1.0" encoding="UTF-8" standalone="no"?>
<svg
   fill="#000000"
   viewBox="0 0 24 24"
   width="24px"
   height="24px"
   version="1.1"
   id="svg167"
   xmlns="http://www.w3.org/2000/svg"
   xmlns:svg="http://www.w3.org/2000/svg">
  <defs
     id="defs171">
    <clipPath
       clipPathUnits="userSpaceOnUse"
       id="clipPath1318">
      <rect
         style="display:none;opacity:0.5;fill:#9b0000;stroke-width:0.85585"
         id="rect1320"
         width="4.2208247"
         height="1.1890637"
         x="15.622164"
         y="6.8359532"
         ry="0.57462192"
         d="m 16.196786,6.8359532 h 3.071581 c 0.31834,0 0.574621,0.2562814 0.574621,0.574622 v 0.03982 c 0,0.3183405 -0.256281,0.5746219 -0.574621,0.5746219 h -3.071581 c -0.318341,0 -0.574622,-0.2562814 -0.574622,-0.5746219 v -0.03982 c 0,-0.3183406 0.256281,-0.574622 0.574622,-0.574622 z" />
      <path
         id="lpe_path-effect1322"
         style="opacity:0.5;fill:#9b0000;stroke-width:0.85585"
         class="powerclip"
         d="M -2.1311711,-4.9651092 H 26.131171 V 29.004215 H -2.1311711 Z M 16.196786,6.8359532 c -0.318341,0 -0.574622,0.2562814 -0.574622,0.574622 v 0.03982 c 0,0.3183405 0.256281,0.5746219 0.574622,0.5746219 h 3.071581 c 0.31834,0 0.574621,-0.2562814 0.574621,-0.5746219 v -0.03982 c 0,-0.3183406 -0.256281,-0.574622 -0.574621,-0.574622 z" />
    </clipPath>
  </defs>
  <path
     d="m 12,0.03489078 c -3.793784,0 -6.8483782,3.05459422 -6.8483782,6.84837852 v 1.1413964 c -1.2476181,0 -2.2827929,1.0351749 -2.2827929,2.2827923 v 11.413965 c 0,1.247617 1.0351748,2.282792 2.2827929,2.282792 H 18.848378 c 1.247619,0 2.282793,-1.035175 2.282793,-2.282792 V 10.307458 c 0,-1.2476174 -1.035174,-2.2827923 -2.282793,-2.2827923 V 6.8832693 C 18.848378,3.089485 15.793785,0.03489078 12,0.03489078 Z m 0,2.28279282 c 2.598035,0 4.565586,1.96755 4.565586,4.5655857 V 8.0246657 H 7.4344144 V 6.8832693 C 7.4344144,4.2852336 9.4019645,2.3176836 12,2.3176836 Z M 5.1516217,10.307458 H 18.848378 V 21.721423 H 5.1516217 Z M 12,13.731648 c -1.255536,0 -2.2827931,1.027257 -2.2827931,2.282793 0,1.255535 1.0272571,2.282792 2.2827931,2.282792 1.255536,0 2.282793,-1.027257 2.282793,-2.282792 0,-1.255536 -1.027257,-2.282793 -2.282793,-2.282793 z"
     id="path165"
     style="stroke-width:1.1414"
     clip-path="url(#clipPath1318)" />
</svg>
